<?xml version="1.0" encoding="utf-8"?>
<!-- Generator: Adobe Illustrator 24.0.1, SVG Export Plug-In . SVG Version: 6.00 Build 0)  -->
<svg version="1.2" baseProfile="tiny" id="Layer_1" xmlns="http://www.w3.org/2000/svg" xmlns:xlink="http://www.w3.org/1999/xlink"
	 x="0px" y="0px" width="457.6px" height="148.2px" viewBox="0 0 457.6 148.2" xml:space="preserve">
<path fill="#333333" d="M457.3,85.1c-0.6-2.3-1.8-4-3.8-5.2c-2.1-1.2-4.2-1.4-6.4-0.8c-2.2,0.7-3.9,2-5.1,3.9
	c-2.4,3.7-4.7,7.4-7.1,11.1c-2.4,3.7-4.9,7.2-7.5,10.6c-0.9,1.2-2.3,2.8-4.1,5c-1.9,2.1-3.8,4.2-5.8,6.2c-2,2-4,3.6-6,4.9
	c-2,1.3-3.7,1.6-5,1c-1.5-0.6-2.2-2-2.2-4.3c0-2.3,0.3-4.7,0.9-7.3c0.6-2.6,1.3-5,2.2-7.3c0.9-2.3,1.5-3.9,1.8-4.8
	c2.7-6.2,5.6-12.2,8.9-17.9c3.2-5.7,6.6-11.3,10-17c1-1.5,2-3,2.8-4.5c0.8-1.6,1.7-3.1,2.8-4.5c4.4-7.1,8.4-14.1,12-21.1
	c3.5-6.9,6.3-14,8.2-21.1v-0.2c0.6-2.2,0.3-4.3-0.8-6.2c-1.1-1.9-2.8-3.2-5-4c-2.2-0.6-4.4-0.3-6.4,0.9c-2.1,1.2-3.3,2.8-3.8,4.9
	c-1.5,5.9-3.7,11.6-6.5,17.2c-2.9,5.5-5.9,10.9-9,16.1c-0.9,1.5-2.2,2.4-3.9,2.9c-1.7,0.4-3.4,0.4-5,0c-1.6-0.7-3.3-1.2-5.1-1.3
	c-1.8-0.1-3.5-0.3-5.1-0.4c-4.6,0-9,0.8-13.3,2.3c-4.3,1.6-8.3,3.6-12,6.1c-5.8,3.8-11,8.4-15.6,13.7c-4.6,5.3-8.8,10.8-12.7,16.5
	c-0.8,0.6-1.5,1.3-2.1,2.1c-1.8,3.1-3.4,5.7-4.9,7.9c-1.5,2.1-2.9,4.1-4.3,5.9c-1.4,1.8-2.9,3.5-4.4,5.1c-1.6,1.6-3.4,3.5-5.4,5.5
	c-6.7,6.8-13.8,11.3-21.4,13.5c-7.6,2.2-14.2,2.7-19.8,1.6c-2.1-0.4-3.7-1.2-4.9-2.3c-1.2-1.1-2.1-2.4-2.7-3.9c-0.6-1.5-0.9-3-1-4.7
	c-0.1-1.6,0-3.2,0.1-4.7c0.3-1.5,0.6-2.7,0.9-3.5c0.7-2.5,1.9-4.4,3.5-5.8c1.6-1.3,3.8-1.6,6.7-0.7c3.7,1.5,7.8,2.4,12.2,2.7
	c3.5,0,7-0.6,10.4-1.9c3.4-1.3,6.6-2.9,9.5-5c5.8-3.8,10.4-8.4,14-13.7c1.5-2.1,2.7-4.4,3.8-7c1-2.6,1.7-5.2,2.1-7.9
	c0.4-2.7,0.3-5.3-0.3-7.9c-0.6-2.6-1.6-4.9-3.1-7c-0.9-1.2-1.8-2.2-2.8-3.1c-1-0.9-2-1.7-3.2-2.4c-2.1-1.3-4.3-2.2-6.5-2.6
	c-2.3-0.4-4.5-0.5-6.5-0.3c-4.6,0.3-8.9,1.3-13.1,3c-4.1,1.7-8.1,3.9-11.8,6.7c-3.7,2.7-7.1,5.8-10.2,9.3c-3.1,3.5-5.8,7.1-8.2,10.8
	c-1.8,2.7-3.4,5.4-4.8,8.3c-1.4,2.9-2.8,5.8-4.1,8.8c-0.8,2-1.5,4-2.2,6.1c-0.1,0.1-0.2,0.2-0.2,0.4c-2.2,3.7-4.5,7.2-6.8,10.5
	c-2.3,3.3-4.7,6.4-7.3,9.3c-2.6,2.9-5.4,5.4-8.5,7.4c-2.1,1-3.8,0.9-5.2-0.4c-1.4-1.3-2.6-3.1-3.4-5.2c-0.9-2.1-1.6-4.4-2-6.8
	c-0.4-2.4-0.7-4-0.9-4.9c-0.3-3,0.2-5.4,1.6-7.4c1.3-2,3.2-4,5.8-5.9c5.2-3.8,10.3-7.6,15.4-11.3c5.1-3.7,9.9-7.8,14.3-12.2
	c1.6-1.6,3.1-3.4,4.4-5.2c1.3-1.8,2.5-3.8,3.5-5.9c1.2-2.4,2.1-4.8,2.7-7.3c0.6-2.5,0.7-5.1,0.4-7.8c-0.1-2.2-1-4.1-2.4-5.8
	c-1.5-1.6-3.4-2.4-5.8-2.4c-2.2,0-4.2,0.8-6,2.4c-1.8,1.6-2.6,3.5-2.4,5.8c0.3,2.7-0.1,5.1-1.1,7.4c-1,2.3-2.4,4.4-4.2,6.3
	c-1.8,1.9-3.7,3.7-5.8,5.3c-2.1,1.6-4,3.1-5.8,4.4c-0.7,0.7-2,1.8-3.8,3.1c-1.8,1.3-3.5,2.4-5.3,3.3c-1.8,0.9-3.4,1.3-4.8,1.2
	c-1.4-0.1-2.1-1.2-2.1-3.4c0-4.1-0.5-8.3-1.6-12.5c-1-4.2-3.2-7.7-6.4-10.5c-5.9-4.3-10.8-5.7-14.5-4.2c-3.8,1.5-7.1,5.3-10.1,11.5
	c-0.9,1.6-1.9,3.1-2.8,4.6c-1.9,1.4-4,2.7-6.1,3.8c-4.7,2.5-9.5,4.6-14.2,6.2c-2.2,0.7-3.6,0.3-4.2-1.3c-0.6-1.6-1.2-3.5-1.8-5.5
	c-0.7-3.3-1.7-6.3-2.9-9.2c-1.2-2.9-2.7-5.4-4.4-7.7c-1.8-2.2-4-4-6.5-5.2c-2.6-1.3-5.7-1.9-9.4-1.9c-4.9,0.1-9.5,2.1-13.7,6
	c-5.4,2.9-10.2,6.2-14.5,10.1c-0.8,0.2-1.6,0.4-2.4,0.8c-4.1,2.8-8.9,4.2-14.3,4.1c-5.4-0.1-10.2-0.9-14.5-2.6
	c-2.8-1.3-5.4-2.8-7.8-4.4c-2.4-1.6-4.6-3.5-6.7-5.8c-1.3-1.3-3-2.1-4.9-2.3c-1.9-0.2-3.7,0.1-5.3,1c-1.9,1.2-3.2,3-3.8,5.4
	c-0.6,2.4-0.3,4.5,0.9,6.1c2.2,3,3.6,6.2,4.2,9.8c0.6,3.5,0.7,7,0.2,10.4c-1.2,7.8-3.9,15.3-8.1,22.4c-4.2,7.1-9.4,13-15.6,17.7
	c-1.2,0.9-2.7,1.8-4.5,2.8c-1.8,1-3.8,1.7-5.8,2.3c-2,0.6-3.9,0.8-5.7,0.6c-1.8-0.2-3.1-1.1-4-2.8c-1-1.5-1.6-2.9-1.7-4.2
	c-0.1-1.3,0-2.9,0.3-4.7c0.7-5.2,2.3-10.2,4.7-15.1c2.4-4.9,4.8-9.5,7.3-13.7c5-8.4,10.1-16.4,15.1-23.9c5-7.5,9.5-15.4,13.3-23.7
	c1.2-2.7,2.4-5.4,3.5-8.2c1.2-2.8,2.3-5.6,3.3-8.4c0.3-0.9,0.6-1.8,0.9-2.7c0.3-0.9,0.6-1.8,0.9-2.9c0.7-2.1,0.5-4.1-0.7-6.1
	c-1.2-2-2.9-3.4-5.1-4.1C58-0.3,56,0,53.9,1.2c-2.1,1.2-3.4,2.8-4,4.9c-2.1,7.4-4.7,14.1-7.8,20.2c-3.1,6.1-6.3,11.8-9.5,17.3
	c-3.4,5.9-7,11.6-10.9,17.2c-3.8,5.5-7.4,11.3-10.6,17.2c-2.8,5.2-5.3,10.5-7.5,15.9c-2.2,5.4-3.4,11-3.5,16.7
	c-0.1,4,0.4,7.7,1.7,11.1c1.3,3.4,3.1,6.3,5.4,8.6c2.4,2.4,5.1,4.2,8.3,5.4c3.2,1.3,6.7,1.8,10.5,1.7c3.1,0,6.2-0.5,9.2-1.6
	c3-1,5.9-2.4,8.5-4.1c2.7-1.7,5.2-3.6,7.5-5.8c2.4-2.1,4.5-4.2,6.4-6.3c4.9-5.5,8.7-11.1,11.4-16.7c2.7-5.7,5.4-11.8,7.9-18.3
	c0.4-1.3,1.1-2.7,1.9-4.1c0.8-1.4,1.8-2.6,3-3.7c1.2-1,2.6-1.8,4.2-2.4c1.6-0.6,3.6-0.8,6-0.7c2.1,0.2,4.1,0.3,6,0.3
	c-2.1,3.3-3.8,6.7-5.2,9.9c-2.5,5.6-4.3,11.3-5.4,17.1c-1.1,5.8-1.2,11.5-0.3,17.1c1,5.6,3.4,10.3,7.1,14.1c3.7,3.8,8.4,5.9,14,6.3
	c3.1,0.1,6.1-0.3,9.1-1.3c3-1,5.8-2.4,8.4-4c2.7-1.6,5.2-3.4,7.7-5.4c2.4-2,4.7-4,6.8-5.9c4.7-4.7,8.7-9.1,11.9-13.2
	c3.2-4.1,5.8-8.2,7.9-12.5c1.5-3,3.1-5.3,4.8-7.1c1.7-1.8,4.2-3.1,7.4-4c1.9-0.5,3.6-1,5.2-1.5c-1.1,1.8-1.3,3.7-0.7,5.8
	c0.7,2.3,2,4,3.9,5.2c2.1,1.2,4.2,1.4,6.3,0.8c2.1-0.7,3.8-2,5-3.9c2.5-3.7,5-7.4,7.3-11c2.4-3.6,4.7-7.4,6.9-11.2
	c0.3-0.4,0.5-0.8,0.8-1.1c0.7-0.6,1.5-1.2,2.2-1.8c0.5-0.2,1-0.3,1.5-0.4c1.6-0.1,2.4,1.4,2.2,4.5c0,1.8,0,3.4-0.1,4.8
	c-0.1,1.4-0.1,2.8-0.1,4.3c0,2.4-0.4,4.9-1.2,7.5c-0.8,2.7-2.5,5-5,7.1c-3.8,3.3-7.6,6.4-11.3,9.4c-3.7,3-7.1,6.3-10.2,9.9
	c-2.8,3.3-5.4,6.7-7.9,10.2c-2.4,3.5-4.2,7.4-5.4,11.5c-0.4,1.5-0.7,3-0.8,4.4c-0.1,1.5,0.3,2.9,1,4.2c1.2,1.8,2.9,3,5.1,3.8
	c2.1,0.7,4.1,0.4,6.2-0.9c0.9-0.4,1.7-1.1,2.4-2c0.7-0.9,1.3-1.9,1.6-2.9c0.4-2.5,1.3-4.8,2.6-7c1.3-2.1,2.7-4.3,4.3-6.3
	c1.3-1.6,2.4-3,3.3-4c0.9-1,1.8-2,2.7-2.9c0.9-0.9,1.8-1.8,2.9-2.8c1-1,2.3-2.1,3.8-3.4c1.9-1.8,3.9-2.5,6-2.2
	c2.1,0.3,3.5,1.7,4.4,4.2c0.9,2.5,1.9,5,3.1,7.5c1.2,2.5,2.6,4.8,4.2,6.8c1.6,2,3.5,3.7,5.8,5c2.2,1.3,4.9,2.1,8,2.4
	c4.9,0.3,9.7-1.4,14.5-5.1c4.2-3.2,8.2-7,12-11.3c1.2,3.1,3,5.8,5.2,8.2c3.1,3.1,6.9,5.2,11.3,6.4c4,1,8.4,1.4,13.3,1.1
	c4.9-0.3,9.7-1.1,14.5-2.3c4.8-1.3,9.3-2.9,13.6-4.9c4.3-2,7.8-4.2,10.4-6.5c1.8-1.6,3.4-3.1,5-4.5c0.1,0.4,0.1,0.8,0.1,1.2
	c0.7,4.6,2.9,8.5,6.4,11.8c2.2,2.2,4.7,3.7,7.5,4.4c2.8,0.7,5.7,1,8.5,0.7c2.9-0.3,5.7-1.1,8.3-2.3c2.7-1.3,5-2.8,6.9-4.8
	c6.2-4.4,12-4.1,17.5,0.9c2.1,1.8,4.3,3.3,6.7,4.5c2.4,1.3,5,1.8,7.8,1.7c3.2,0,6.4-0.7,9.4-2.1c3-1.4,5.9-3.2,8.5-5.3
	c2.7-2.1,5.1-4.5,7.3-7c2.2-2.5,4.2-5,6-7.3c3.4-4.3,6.5-8.5,9.4-12.6c2.9-4.1,5.6-8.3,8.1-12.6C457.6,89.5,457.9,87.4,457.3,85.1z
	 M295.2,72.4c2.5-3,5.2-5.7,8.2-8.2c1.2-0.9,2.6-1.8,4.1-2.8c1.6-1,3.2-1.8,4.9-2.7c1.7-0.8,3.4-1.4,5.1-1.8
	c1.7-0.4,3.3-0.3,4.8,0.1c1.3,0.3,2.2,0.9,2.7,1.9c0.4,1,0.6,2,0.4,3c-0.7,4.6-2.8,8.5-6.3,11.9c-3.5,3.3-7.1,5.8-11,7.4
	c-2.1,0.7-4,1.1-5.7,1.2c-1.7,0.1-3.4-0.3-5.2-1c-2.1-1.2-3.2-2.6-3.4-4.2C293.5,75.6,294,74,295.2,72.4z M142.4,93.7
	c-2.5,4.3-5.6,8.2-9.2,11.8c-3.6,3.5-7.3,6.8-11,9.8c-1.3,1-3,2.1-5.1,3.3c-2.1,1.2-4.1,2-6.1,2.4c-2,0.4-3.7,0.3-5.2-0.6
	c-1.5-0.8-2.3-2.7-2.4-5.7c-0.1-3.5,0.1-7.2,0.7-10.9c0.6-3.7,1.5-7.3,2.8-10.9c1.3-3.5,2.8-6.9,4.8-10.1c1.9-3.2,4.1-5.9,6.4-8.3
	c3.2-3.8,6.2-4.1,8.9-0.7c2.1,2.1,4.1,4,6.1,5.8c2,1.8,4.3,3.3,7,4.4c1.9,1.2,3,2.7,3.3,4.4C143.6,90.3,143.3,92,142.4,93.7z
	 M149.9,68c-0.9,1.3-2.7,1.2-5.3-0.1c-0.7-0.3-1.4-0.8-2.1-1.4c-0.7-0.7-1.2-1.2-1.7-1.7c-1.5-1.3-2-3.2-1.7-5.5
	c0.4-2.4,1.8-3.8,4.3-4.4c3.3-0.7,5.4-0.1,6.3,1.9c1,2,1.4,4.3,1.4,7C151.3,65.3,150.8,66.8,149.9,68z M396.8,83.5
	c-2.7,4.4-5.6,8.6-8.5,12.4c-3,3.8-6.2,7.5-9.6,11.1c-3.5,3.5-7.5,7.1-12.1,10.6c-4.6,3.1-7.9,4.4-10,3.9c-2.1-0.5-2.8-3.9-2.2-10.1
	c1-5.6,2.8-10.8,5.4-15.6c2.6-4.8,5.6-9.3,9-13.6c2.2-2.7,4.7-5.5,7.4-8.5c2.7-3,5.7-5.8,8.8-8.2c3.1-2.4,6.4-4.3,9.8-5.7
	c3.4-1.3,6.8-1.7,10.2-1.1c1.3,0.3,2.2,0.9,2.6,1.7c0.4,0.8,0.5,1.7,0.3,2.8c-0.1,1-0.4,2-0.9,3c-0.4,1-0.9,1.8-1.3,2.6
	C402.5,74.1,399.6,79,396.8,83.5z"/>
</svg>
