<?xml version="1.0" encoding="utf-8"?>
<!-- Generator: Adobe Illustrator 24.0.1, SVG Export Plug-In . SVG Version: 6.00 Build 0)  -->
<svg version="1.2" baseProfile="tiny" id="Layer_1" xmlns="http://www.w3.org/2000/svg" xmlns:xlink="http://www.w3.org/1999/xlink"
	 x="0px" y="0px" width="263.1px" height="128.3px" viewBox="0 0 263.1 128.3" xml:space="preserve">
<g>
	<path fill="#21243D" d="M81.1,37.1c1.2,0.7,2,1.8,2.4,3.2c0.4,1.4,0.2,2.7-0.6,3.9c-1.4,2.2-3.2,4.2-5.3,5.8
		c-2.2,1.7-4.5,3-6.9,4.1c-2.4,1.1-4.8,1.8-7.3,2.2c-2.5,0.4-4.6,0.5-6.3,0.3c-1.9-0.2-3.2,0.1-4.1,0.8c-0.9,0.7-1.5,1.9-1.7,3.5
		c-0.4,2.5-1.2,5.6-2.4,9.3c-1.2,3.7-2.8,7.7-4.6,11.9c-1.9,4.2-3.9,8.5-6.2,12.9c-2.3,4.4-4.6,8.6-7.1,12.5
		c-2.4,3.9-4.9,7.4-7.4,10.5c-2.4,3.1-4.8,5.5-7,7.1c-1.8,1.3-3.7,2.2-5.8,2.8c-2.1,0.6-4.2,0.3-6.2-0.9c-1.6-0.9-2.7-2.2-3.4-4
		c-0.7-1.7-1.1-3.7-1.1-5.9c0-2.2,0.2-4.6,0.7-7.2c0.5-2.6,1.2-5.1,2-7.6c0.4-1,1.2-2,2.4-2.8c1.2-0.9,2.5-1.1,3.9-0.6
		c1.3,0.5,2.2,1.3,2.8,2.6c0.6,1.2,0.7,2.6,0.3,4.1c-0.4,1.1-0.8,2.6-1.2,4.6c-0.4,1.9-0.7,3.5-0.9,4.6c-0.2,0.7-0.3,1.3-0.2,1.7
		c0,0.4,0.4,0.4,1.2-0.1c1.3-1,2.5-2.1,3.6-3.3c1.1-1.2,2.2-2.5,3.2-3.7c0.6-0.7,1.4-2.1,2.5-4c1.1-1.9,2.3-4.1,3.6-6.5
		c1.3-2.5,2.7-5.1,4.1-7.8c1.4-2.8,2.8-5.4,4-7.9c1.2-2.5,2.4-4.7,3.3-6.7c1-1.9,1.6-3.4,2-4.3c1-2.4,1.9-5.1,2.6-8
		c0.4-1.9-0.1-3.1-1.4-3.5c-1.3-0.4-2.6,0.4-4,2.4c-0.6,0.9-1.3,2.2-2.2,3.7c-0.9,1.5-1.9,3.2-3.1,5.1c-1.1,1.9-2.2,3.8-3.4,5.9
		c-1.2,2.1-2.3,4.1-3.4,6.2c-1.3,2.1-2.7,3.2-4.1,3.3c-1.4,0-2.6-0.2-3.5-0.8c-0.4-0.2-0.8-0.5-1.2-1c-0.4-0.5-0.7-1-1-1.7
		c-0.2-0.6-0.3-1.4-0.3-2.1c0-0.8,0.2-1.6,0.7-2.6c1.9-3.5,3.8-6.9,5.8-10.2c2-3.3,3.9-6.3,5.6-9.1c1.8-2.8,3.4-5.2,4.8-7.4
		c1.4-2.1,2.5-3.7,3.3-4.9c2.1-3.2,4.2-6.5,6.3-9.7c2.1-3.2,4.1-6.5,6-9.8c2.2-3.8,4.4-7.6,6.5-11.6c2.1-3.9,3.8-8.1,5.1-12.4
		C57,2.5,57.8,1.5,59,0.7c1.2-0.7,2.5-0.9,3.9-0.6c1.3,0.5,2.3,1.3,3.1,2.6C66.8,4,67,5.3,66.5,6.6c-1,3.1-2.2,6.2-3.5,9.2
		c-1.3,3-2.7,5.9-4.3,8.7c-1.2,2.2-2.4,4.4-3.7,6.5c-1.2,2.1-2.6,4.3-4,6.7c-0.8,1.4-1.1,2.7-0.7,4c0.4,1.3,1.3,2.4,2.9,3.2
		c0.8,0.5,2.1,0.8,3.7,1c1.6,0.2,3.4,0.1,5.3-0.3c1.9-0.4,3.9-1.1,6-2.1c2-1,3.9-2.5,5.5-4.4c0.7-1.2,1.8-2,3.2-2.4
		C78.4,36.2,79.8,36.3,81.1,37.1z"/>
	<path fill="#21243D" d="M194,52.1c-0.4-13.9,6.9-20.9,16.5-20.9c5.8,0,10.3,1.8,19.7,6.2c6.9,3.3,12.1,5.8,17.2,5.8
		c5,0,7.4-4,7.5-11.7h8.2c0.7,15.4-7.2,20.9-15.8,20.9c-5.5,0-10.5-1.7-20.1-6.1c-6.5-3.2-11.7-6.1-16.6-6.1c-5,0-8,3.5-8.2,11.8
		H194z"/>
</g>
</svg>
