<?xml version="1.0" encoding="utf-8"?>
<!-- Generator: Adobe Illustrator 24.0.1, SVG Export Plug-In . SVG Version: 6.00 Build 0)  -->
<svg version="1.2" baseProfile="tiny" id="Layer_1" xmlns="http://www.w3.org/2000/svg" xmlns:xlink="http://www.w3.org/1999/xlink"
	 x="0px" y="0px" width="100.5px" height="75.6px" viewBox="0 0 100.5 75.6" xml:space="preserve">
<g>
	<path fill="#21243D" d="M30.1,13.2c1.9,0,3.4-0.6,4.7-1.9c1.3-1.3,1.9-2.8,1.9-4.7c0-1.9-0.6-3.4-1.9-4.7C33.5,0.6,31.9,0,30.1,0
		c-1.9,0-3.4,0.6-4.7,1.9c-1.3,1.3-1.9,2.8-1.9,4.7c0,1.9,0.6,3.4,1.9,4.7C26.7,12.5,28.2,13.2,30.1,13.2z"/>
	<path fill="#21243D" d="M100.3,41c-0.4-1.4-1.2-2.5-2.5-3.2c-1.2-0.8-2.5-0.9-3.9-0.6c-1.4,0.4-2.5,1.2-3.2,2.5
		c-1.9,3.2-3.9,6.2-6,9c-2.3,2.9-4.7,5.7-7.2,8.4c-2.5,2.7-5.3,4.9-8.4,6.6c-1.6,0.8-2.7,0.7-3.2-0.1c-0.5-0.8-0.7-1.7-0.5-2.7
		c0.6-2.7,1.5-5.1,2.8-7.3s2.8-4.4,4.3-6.6c2-3.2,3.9-6.5,5.6-9.9c0.8-1.8,1.6-3.7,2.4-5.8c0.8-2,1.2-4.1,1.3-6.2
		c0.1-2-0.1-4-0.8-5.8c-0.7-1.8-2-3.3-3.9-4.6c-1.3-0.9-2.7-1.5-4.3-1.7c-1.5-0.2-3.1-0.1-4.6,0.2c-1.5,0.3-3,0.8-4.4,1.5
		S61.2,16.1,60,17c-0.8,0.4-1.6,0.7-2.2,0.8c-0.6,0.1-1.1,0-1.6-0.2c-0.4-0.2-0.9-0.4-1.4-0.8c-0.4-0.4-1-0.8-1.5-1.1
		c-1.2-0.6-2.5-0.8-4-0.5c-1.5,0.3-2.5,1.1-3.2,2.5c-4.2,8.7-8.2,16.8-12,24.4c-0.3,0.4-0.5,0.8-0.8,1.1c-0.8,1.1-1.5,2.2-2.2,3.2
		c-0.4,0.4-1,1.3-2,2.5c-0.9,1.2-2,2.5-3.3,4c-1.3,1.5-2.7,3-4.1,4.6c-1.5,1.5-2.9,2.9-4.3,4.1c-1.3,1.2-2.6,2-3.7,2.5
		c-1.1,0.5-2,0.4-2.7-0.2c-0.4-0.4-0.7-1.1-0.6-2c0.1-0.9,0.2-1.8,0.4-2.8c0.3-1,0.5-1.9,0.8-2.7s0.6-1.5,0.8-2
		c1.3-3.2,2.9-6.2,4.7-9.1c1.9-2.9,3.6-5.8,5.2-8.9c0.4-0.6,0.8-1.4,1.4-2.5c0.6-1.1,1.1-2.3,1.7-3.5c0.6-1.2,1.1-2.4,1.5-3.5
		c0.4-1.1,0.7-2,0.8-2.7c0.3-1.4,0.1-2.8-0.6-4.1c-0.6-1.3-1.7-2.1-3.1-2.4c-1.3-0.4-2.7-0.2-4.1,0.5c-1.4,0.7-2.2,1.8-2.5,3.2
		c-0.1,0.6-0.3,1.1-0.4,1.7c-0.2,0.6-0.4,1.1-0.6,1.7c-1.3,3-2.8,5.9-4.5,8.6c-1.7,2.8-3.3,5.6-4.9,8.4c-1,1.6-1.9,3.2-2.7,4.9
		s-1.5,3.4-2.2,5.1c-0.6,1.6-1.1,3.2-1.5,4.7S0.1,59.6,0,61.3c-0.1,1.8,0.2,3.5,0.8,5.3c0.6,1.7,1.5,3.2,2.6,4.6
		c1.1,1.3,2.4,2.3,3.9,3.2c1.5,0.8,3.1,1.1,4.7,0.9c2.7-0.2,5.3-1.1,7.6-2.7c0.6-0.4,1.1-0.8,1.6-1.1c0.4,1.3,1.3,2.3,2.3,3.1
		c1.3,0.8,2.7,0.9,4.1,0.4c1.3-0.3,2.3-1.1,3.1-2.4c2.1-2.9,4.1-5.8,6-8.6c2-2.8,4-5.8,6-8.6c1.3-2,3-4.5,5.2-7.6
		c2.2-3.1,4.4-6.1,6.6-9.2s4.5-5.8,6.5-8.2c2.1-2.4,3.7-4,5.1-4.6c1.2-0.6,2.3-0.9,3.4-0.8c1.1,0.1,1.5,0.8,1.2,2.1
		c-0.4,2.3-1.3,4.5-2.5,6.5s-2.3,4.1-3.6,6.1c-1.2,2-2.5,3.9-3.8,6c-1.3,2-2.5,4.1-3.5,6.2c-1,2.1-1.8,4.2-2.4,6.4
		c-0.6,2.2-0.8,4.4-0.6,6.7c0.1,1.6,0.6,3.3,1.4,5.1c0.6,1.3,1.4,2.4,2.5,3.2c1.1,0.8,2.3,1.5,3.7,2c2.5,0.8,5,0.7,7.5-0.1
		c2.4-0.8,4.7-1.9,7-3.4c2.2-1.5,4.2-3.1,6.1-5c1.9-1.9,3.5-3.6,5.1-5.2c4.6-5.1,8.5-10.4,11.9-16.1C100.5,43.8,100.6,42.4,100.3,41
		z"/>
</g>
</svg>
