<?xml version="1.0" encoding="utf-8"?>
<!-- Generator: Adobe Illustrator 24.0.1, SVG Export Plug-In . SVG Version: 6.00 Build 0)  -->
<svg version="1.2" baseProfile="tiny" id="Layer_1" xmlns="http://www.w3.org/2000/svg" xmlns:xlink="http://www.w3.org/1999/xlink"
	 x="0px" y="0px" width="1600px" height="1150px" viewBox="0 0 1600 1150" xml:space="preserve">
<path fill="#007EC3" stroke="#000000" stroke-width="5" stroke-miterlimit="10" d="M115.5,690.4L115.5,690.4l0,227.5h83V773.4
	C198.5,727.5,161.4,690.4,115.5,690.4z"/>
<path fill="#007EC3" stroke="#000000" stroke-width="5" stroke-miterlimit="10" d="M97.8,746.8H86.5V519.4h140v98.8
	C226.5,689.2,168.9,746.8,97.8,746.8z"/>
<path fill="#007EC3" stroke="#000000" stroke-width="5" stroke-miterlimit="10" d="M486.1,690.4L486.1,690.4l0,227.5h-83V773.4
	C403,727.5,440.2,690.4,486.1,690.4z"/>
<path fill="#008B06" stroke="#000000" stroke-width="3.8371" stroke-miterlimit="10" d="M987.6,616.3c0,34.5-6,62.5-13.3,62.5
	s-13.3-28-13.3-62.5s13.3-50.5,13.3-50.5S987.6,581.8,987.6,616.3z"/>
<path fill="#008B06" stroke="#000000" stroke-width="3.8371" stroke-miterlimit="10" d="M957.3,632.6c18.7,18.7,30.7,37.1,26.7,41.1
	c-4,4-22.4-8-41.1-26.7c-18.7-18.7-26.7-41.1-26.7-41.1S938.6,613.9,957.3,632.6z"/>
<path fill="#008B06" stroke="#000000" stroke-width="3.8371" stroke-miterlimit="10" d="M910.1,634.9c26.4,2.2,47.4,8.6,46.9,14.2
	s-22.4-3.7-48.6-0.4c-26.6,3.3-41.3,0-41.3,0S883.7,632.7,910.1,634.9z"/>
<path fill="#008B06" stroke="#000000" stroke-width="3.8371" stroke-miterlimit="10" d="M991.4,632.6
	c-18.7,18.7-30.7,37.1-26.7,41.1c4,4,22.4-8,41.1-26.7c18.7-18.7,26.7-41.1,26.7-41.1S1010.2,613.9,991.4,632.6z"/>
<path fill="#007EC3" stroke="#000000" stroke-width="5" stroke-miterlimit="10" d="M501.8,746.8h11.3V519.4h-140v98.8
	C373.1,689.2,430.7,746.8,501.8,746.8z"/>
<g>
	<path fill="#A26400" stroke="#000000" stroke-width="5" stroke-miterlimit="10" d="M924.7,649.7h89.2"/>
	<path fill="#A26400" stroke="#000000" stroke-width="5" stroke-miterlimit="10" d="M924.7,649.7c-1,3.8-1.6,7.8-1.6,11.9
		c0,25.5,20.7,46.2,46.2,46.2s46.2-20.7,46.2-46.2c0-4.1-0.5-8.1-1.6-11.9H924.7z"/>
</g>
<line fill="none" stroke="#000000" stroke-width="5" stroke-miterlimit="10" x1="924.7" y1="649.7" x2="978.9" y2="472.4"/>
<path fill="#008B06" stroke="#000000" stroke-width="3.8371" stroke-miterlimit="10" d="M954.9,663.6c15.1-21.8,3.3-15.3-1.4-18.5
	c-4.6-3.2-0.3-14.9-15.4,6.8c-15.1,21.8-19,45.2-19,45.2S939.8,685.3,954.9,663.6z"/>
<path fill="#008B06" stroke="#000000" stroke-width="3.8371" stroke-miterlimit="10" d="M994.2,663.6c-15.1-21.8-2.3-14.3,2.4-17.5
	c4.6-3.2-0.7-15.9,14.4,5.8c15.1,21.8,19,45.2,19,45.2S1009.3,685.3,994.2,663.6z"/>
<path fill="#008B06" stroke="#000000" stroke-width="4.2835" stroke-miterlimit="10" d="M984.8,663.2c-0.2-29.6-4-15.9-10.3-15.9
	s-12.7-13.5-12.5,16c0.2,29.6,11.7,53.5,11.7,53.5S985,692.7,984.8,663.2z"/>
<line fill="none" stroke="#000000" stroke-width="5" stroke-miterlimit="10" x1="1029.9" y1="648.7" x2="978.9" y2="471.4"/>
<circle fill="#9F9F9F" stroke="#000000" stroke-width="5" stroke-linejoin="round" stroke-miterlimit="10" cx="1458.2" cy="636.4" r="62.8"/>
<rect x="1448.3" y="484.2" width="18.7" height="126.3"/>
<g>
	<path d="M1468.6,808.7c-0.7,0-1.4-0.1-2-0.6c-1.3-1-1.5-2.8-0.6-4.1l21.6-28.3l-21.3,1.4c-1.6,0.1-3-1.1-3.1-2.7
		c-0.1-1.6,1.1-3,2.7-3.1l27.8-1.9c1.2-0.1,2.3,0.5,2.8,1.6c0.5,1,0.4,2.3-0.3,3.2l-25.6,33.5
		C1470.2,808.2,1469.4,808.6,1468.6,808.7z"/>
</g>
<path d="M1428.3,757l6.6-11.5c1.2-2.1-0.3-4.8-2.8-4.8h-13.2c-2.5,0-4,2.7-2.8,4.8l6.6,11.5C1424,759.1,1427,759.1,1428.3,757z"/>
<circle fill="#9F9F9F" stroke="#000000" stroke-width="3.0858" stroke-linejoin="round" stroke-miterlimit="10" cx="1458.2" cy="636.4" r="38.7"/>
<path fill="#FFD082" stroke="#21243D" stroke-width="7" stroke-miterlimit="10" d="M0,0v1150h1600V0H0z M466.7,876.4H134.5V519.1
	h332.2V876.4z M1006.8,876.4H605V474.5c0-111,90-200.9,200.9-200.9s200.9,90,200.9,200.9L1006.8,876.4L1006.8,876.4z M1477.3,876.4
	h-332.2V519.1h332.2V876.4z"/>
<path fill="none" stroke="#333333" stroke-width="7" stroke-miterlimit="10" d="M1511.9,52.7"/>
<path fill="none" stroke="#333333" stroke-width="7" stroke-miterlimit="10" d="M988.6,302.8"/>
<path fill="none" stroke="#333333" stroke-width="7" stroke-miterlimit="10" d="M1497.6,302.8"/>
<path fill="none" stroke="#333333" stroke-width="7" stroke-miterlimit="10" d="M1019.8,271.3"/>
<path fill="none" stroke="#21243D" stroke-width="7" stroke-miterlimit="10" d="M1060.3,473.7c0-140-113.5-253.5-253.5-253.5
	S553.3,333.7,553.3,473.7"/>
<line fill="none" stroke="#21243D" stroke-width="7" stroke-miterlimit="10" x1="497.8" y1="471.4" x2="105.6" y2="471.4"/>
<line fill="none" stroke="#21243D" stroke-width="7" stroke-miterlimit="10" x1="1507.3" y1="471.4" x2="1115" y2="471.4"/>
<line fill="none" stroke="#21243D" stroke-width="7" stroke-miterlimit="10" x1="497.8" y1="876.4" x2="105.6" y2="876.4"/>
<polyline fill="none" stroke="#21243D" stroke-width="7" stroke-miterlimit="10" points="1532.1,52.7 1532.1,97.8 1487,97.8 
	1487,52.7 1389.9,52.7 1389.9,97.8 1344.9,97.8 1344.9,52.7 1247.8,52.7 1247.8,97.8 1249.1,97.8 1204.1,97.8 1204.1,52.7 
	1107,52.7 1107,97.8 1061.9,97.8 1061.9,52.7 964.9,52.7 964.9,97.8 919.8,97.8 919.8,52.7 822.7,52.7 822.7,97.8 777.6,97.8 
	777.6,52.7 680.6,52.7 680.6,97.8 635.5,97.8 635.5,52.7 538.4,52.7 538.4,97.8 493.4,97.8 493.4,52.7 396.3,52.7 396.3,97.8 
	351.2,97.8 351.2,52.7 254.1,52.7 254.1,97.8 209.1,97.8 209.1,52.7 112,52.7 112,97.8 66.9,97.8 66.9,52.7 "/>
<line fill="none" stroke="#21243D" stroke-width="7" stroke-miterlimit="10" x1="553.3" y1="876.4" x2="1060.3" y2="876.4"/>
<line fill="none" stroke="#21243D" stroke-width="7" stroke-miterlimit="10" x1="1115" y1="876.4" x2="1507.3" y2="876.4"/>
<polygon fill="#A26400" stroke="#000000" stroke-width="5" stroke-miterlimit="10" points="659.3,874.4 606,874.4 606,798.7 
	676.2,798.7 "/>
<path fill="#21E700" stroke="#000000" stroke-width="5" stroke-miterlimit="10" d="M689.7,772.5c0,0-14.8,19.7-33.1,19.7
	c-18.3,0-33.1-19.7-33.1-19.7s14.8-19.7,33.1-19.7C674.9,752.8,689.7,772.5,689.7,772.5z"/>
<path fill="#21E700" stroke="#000000" stroke-width="5" stroke-miterlimit="10" d="M669.5,734.5c0,0-3.3,21-17.3,28.5
	s-33.2-1.6-33.2-1.6s3.3-21,17.3-28.5C650.2,725.5,669.5,734.5,669.5,734.5z"/>
<path fill="#21E700" stroke="#000000" stroke-width="5" stroke-miterlimit="10" d="M652.9,694.4c0,0,6.1,20.4-3.3,33.1
	c-9.4,12.7-30.7,12.9-30.7,12.9s-6.1-20.4,3.3-33.1C631.6,694.7,652.9,694.4,652.9,694.4z"/>
<rect x="617" y="741.5" fill="#21E700" stroke="#000000" stroke-width="5" stroke-miterlimit="10" width="6.3" height="57.2"/>
<polygon fill="#9F9F9F" stroke="#000000" stroke-width="5" stroke-linecap="round" stroke-linejoin="round" stroke-miterlimit="10" points="
	1395.6,810.3 1395.7,772.8 1362.7,772.8 "/>
<line fill="none" stroke="#000000" stroke-width="5" stroke-miterlimit="10" x1="606" y1="815.6" x2="672.5" y2="815.6"/>
<polygon fill="#9F9F9F" stroke="#000000" stroke-width="5" stroke-linejoin="round" stroke-miterlimit="10" points="1425.5,758.4 
	1425.5,758.4 1382.8,772.6 1400.1,823.5 1450.9,823.5 1468.3,772.6 "/>
<polygon fill="#9F9F9F" stroke="#000000" stroke-width="5" stroke-linejoin="round" stroke-miterlimit="10" points="1465.3,874.5 
	1450.9,823.5 1400.1,823.5 1385.8,874.5 "/>
<line fill="none" stroke="#000000" stroke-width="7" stroke-miterlimit="10" x1="605" y1="474.5" x2="1006.8" y2="474.5"/>
</svg>
