<?xml version="1.0" encoding="utf-8"?>
<!-- Generator: Adobe Illustrator 24.0.1, SVG Export Plug-In . SVG Version: 6.00 Build 0)  -->
<svg version="1.2" baseProfile="tiny" id="Layer_1" xmlns="http://www.w3.org/2000/svg" xmlns:xlink="http://www.w3.org/1999/xlink"
	 x="0px" y="0px" width="700px" height="1150px" viewBox="0 0 700 1150" xml:space="preserve">
<path fill="#FFFFFF" stroke="#000000" stroke-width="5" stroke-miterlimit="10" d="M439.1,826H260.4c-7.1,0-12.9-5.8-12.9-12.9l0,0
	c0-7.1,5.8-12.9,12.9-12.9h178.7c7.1,0,12.9,5.8,12.9,12.9l0,0C452.1,820.2,446.3,826,439.1,826z"/>
<rect x="259.4" y="826" fill="#FFFFFF" stroke="#000000" stroke-width="5" stroke-miterlimit="10" width="180.2" height="78.4"/>
<ellipse fill="#FFFFFF" stroke="#000000" stroke-width="5" stroke-miterlimit="10" cx="350" cy="852.2" rx="73" ry="86.2"/>
<ellipse fill="#FFFFFF" stroke="#000000" stroke-width="5" stroke-miterlimit="10" cx="350" cy="852.2" rx="44.1" ry="52.2"/>
<path fill="#FFD082" stroke="#21243D" stroke-width="7" stroke-miterlimit="10" d="M0,0v1150h700V0H0z M516.1,876.4H183.9V519.2
	h332.2V876.4z"/>
<path fill="none" stroke="#21243D" stroke-width="7" stroke-miterlimit="10" d="M686,52.7"/>
<polyline fill="none" stroke="#21243D" stroke-width="7" stroke-miterlimit="10" points="656.8,52.7 656.8,97.8 611.7,97.8 
	611.7,52.7 514.7,52.7 514.7,97.8 469.6,97.8 469.6,52.7 372.5,52.7 372.5,97.8 327.5,97.8 327.5,52.7 230.4,52.7 230.4,97.8 
	185.3,97.8 185.3,52.7 88.3,52.7 88.3,97.8 43.2,97.8 43.2,52.7 "/>
<line fill="none" stroke="#21243D" stroke-width="7" stroke-miterlimit="10" x1="545.6" y1="471.4" x2="153.4" y2="471.4"/>
<line fill="none" stroke="#21243D" stroke-width="7" stroke-miterlimit="10" x1="545.6" y1="876.4" x2="153.4" y2="876.4"/>
<g>
	<rect x="284.5" y="575" fill="#FF5D50" stroke="#000000" stroke-width="5" stroke-miterlimit="10" width="130.9" height="165.8"/>
	<rect x="298.3" y="592.4" fill="#A3FFFF" stroke="#000000" stroke-width="5" stroke-miterlimit="10" width="103.4" height="131"/>
	<line fill="none" stroke="#000000" stroke-width="5" stroke-miterlimit="10" x1="284.5" y1="575" x2="298.3" y2="592.4"/>
	<line fill="none" stroke="#000000" stroke-width="5" stroke-miterlimit="10" x1="415.5" y1="575" x2="401.7" y2="592.4"/>
	<line fill="none" stroke="#000000" stroke-width="5" stroke-miterlimit="10" x1="415.5" y1="740.8" x2="401.7" y2="723.4"/>
	<line fill="none" stroke="#000000" stroke-width="5" stroke-miterlimit="10" x1="284.5" y1="740.8" x2="298.3" y2="723.4"/>
</g>
<line fill="none" stroke="#000000" stroke-width="3" stroke-miterlimit="10" x1="390.1" y1="592.4" x2="379.9" y2="605.7"/>
<line fill="none" stroke="#000000" stroke-width="3" stroke-miterlimit="10" x1="401.7" y1="592.4" x2="380.7" y2="621.5"/>
<line fill="none" stroke="#000000" stroke-width="3" stroke-miterlimit="10" x1="309.9" y1="723.4" x2="320.1" y2="710.2"/>
<line fill="none" stroke="#000000" stroke-width="3" stroke-miterlimit="10" x1="298.3" y1="723.4" x2="319.3" y2="694.3"/>
</svg>
