<?xml version="1.0" encoding="utf-8"?>
<!-- Generator: Adobe Illustrator 24.0.1, SVG Export Plug-In . SVG Version: 6.00 Build 0)  -->
<svg version="1.2" baseProfile="tiny" id="Layer_1" xmlns="http://www.w3.org/2000/svg" xmlns:xlink="http://www.w3.org/1999/xlink"
	 x="0px" y="0px" width="1600px" height="1150px" viewBox="0 0 1600 1150" xml:space="preserve">
<path fill="#F9ED69" stroke="#333333" stroke-width="7" stroke-miterlimit="10" d="M0,0v1150h1600V0H0z M466.7,876.4H134.5V519.1
	h332.2V876.4z M1006.8,876.4H605V474.5c0-111,90-200.9,200.9-200.9s200.9,90,200.9,200.9V876.4z M1477.3,876.4h-332.2V519.1h332.2
	V876.4z"/>
<path fill="none" stroke="#333333" stroke-width="7" stroke-miterlimit="10" d="M1511.9,52.7"/>
<path fill="none" stroke="#333333" stroke-width="7" stroke-miterlimit="10" d="M988.6,302.8"/>
<path fill="none" stroke="#333333" stroke-width="7" stroke-miterlimit="10" d="M1497.6,302.8"/>
<path fill="none" stroke="#333333" stroke-width="7" stroke-miterlimit="10" d="M1019.8,271.3"/>
<path fill="none" stroke="#333333" stroke-width="7" stroke-miterlimit="10" d="M1060.3,473.7c0-140-113.5-253.5-253.5-253.5
	S553.3,333.7,553.3,473.7"/>
<line fill="none" stroke="#333333" stroke-width="7" stroke-miterlimit="10" x1="497.8" y1="471.4" x2="105.6" y2="471.4"/>
<line fill="none" stroke="#333333" stroke-width="7" stroke-miterlimit="10" x1="1507.3" y1="471.4" x2="1115" y2="471.4"/>
<line fill="none" stroke="#333333" stroke-width="7" stroke-miterlimit="10" x1="497.8" y1="876.4" x2="105.6" y2="876.4"/>
<polyline fill="none" stroke="#333333" stroke-width="7" stroke-miterlimit="10" points="1532.1,52.7 1532.1,97.8 1487,97.8 
	1487,52.7 1389.9,52.7 1389.9,97.8 1344.9,97.8 1344.9,52.7 1247.8,52.7 1247.8,97.8 1249.1,97.8 1204.1,97.8 1204.1,52.7 
	1107,52.7 1107,97.8 1061.9,97.8 1061.9,52.7 964.9,52.7 964.9,97.8 919.8,97.8 919.8,52.7 822.7,52.7 822.7,97.8 777.6,97.8 
	777.6,52.7 680.6,52.7 680.6,97.8 635.5,97.8 635.5,52.7 538.4,52.7 538.4,97.8 493.4,97.8 493.4,52.7 396.3,52.7 396.3,97.8 
	351.2,97.8 351.2,52.7 254.1,52.7 254.1,97.8 209.1,97.8 209.1,52.7 112,52.7 112,97.8 66.9,97.8 66.9,52.7 "/>
<line fill="none" stroke="#333333" stroke-width="7" stroke-miterlimit="10" x1="553.3" y1="876.4" x2="1060.3" y2="876.4"/>
<line fill="none" stroke="#333333" stroke-width="7" stroke-miterlimit="10" x1="1115" y1="876.4" x2="1507.3" y2="876.4"/>
</svg>
