<?xml version="1.0" encoding="utf-8"?>
<!-- Generator: Adobe Illustrator 24.0.1, SVG Export Plug-In . SVG Version: 6.00 Build 0)  -->
<svg version="1.2" baseProfile="tiny" id="Layer_1" xmlns="http://www.w3.org/2000/svg" xmlns:xlink="http://www.w3.org/1999/xlink"
	 x="0px" y="0px" width="700px" height="1150px" viewBox="0 0 700 1150" xml:space="preserve">
<path fill="#FFD082" stroke="#21243D" stroke-width="7" stroke-miterlimit="10" d="M0,0v1150h700V0H0z M516.1,876.4H183.9V519.2
	h332.2V876.4z"/>
<path fill="none" stroke="#21243D" stroke-width="7" stroke-miterlimit="10" d="M686,52.7"/>
<polyline fill="none" stroke="#21243D" stroke-width="7" stroke-miterlimit="10" points="656.8,52.7 656.8,97.8 611.7,97.8 
	611.7,52.7 514.7,52.7 514.7,97.8 469.6,97.8 469.6,52.7 372.5,52.7 372.5,97.8 327.5,97.8 327.5,52.7 230.4,52.7 230.4,97.8 
	185.3,97.8 185.3,52.7 88.3,52.7 88.3,97.8 43.2,97.8 43.2,52.7 "/>
<line fill="none" stroke="#21243D" stroke-width="7" stroke-miterlimit="10" x1="545.6" y1="471.4" x2="153.4" y2="471.4"/>
<line fill="none" stroke="#21243D" stroke-width="7" stroke-miterlimit="10" x1="545.6" y1="876.4" x2="153.4" y2="876.4"/>
</svg>
