<?xml version="1.0" encoding="utf-8"?>
<!-- Generator: Adobe Illustrator 24.0.1, SVG Export Plug-In . SVG Version: 6.00 Build 0)  -->
<svg version="1.2" baseProfile="tiny" id="Layer_1" xmlns="http://www.w3.org/2000/svg" xmlns:xlink="http://www.w3.org/1999/xlink"
	 x="0px" y="0px" width="1600px" height="700px" viewBox="0 0 1600 700" xml:space="preserve">
<rect fill="#FFD082" stroke="#21243D" stroke-width="8" stroke-miterlimit="10" width="1600.9" height="700"/>
<rect x="59.5" y="64" fill="#FFD082" stroke="#21243D" stroke-width="7" stroke-miterlimit="10" width="1470" height="578.6"/>
<path fill="#FFD082" stroke="#231F20" stroke-width="7" stroke-miterlimit="10" d="M1600.9-172.3"/>
<circle fill="#FFD082" stroke="#21243D" stroke-width="7" stroke-miterlimit="10" cx="265.2" cy="353.3" r="146.7"/>
<rect x="1167.2" y="201.4" fill="#FFD082" stroke="#21243D" stroke-width="7" stroke-miterlimit="10" width="297.1" height="297.1"/>
<path fill="#FFD082" stroke="#21243D" stroke-width="7" stroke-miterlimit="10" d="M572.2,571.6L572.2,571.6
	c-20.9,0-37.8-16.9-37.8-37.8V166.2c0-20.9,16.9-37.8,37.8-37.8l0,0c20.9,0,37.8,16.9,37.8,37.8v367.6
	C610.1,554.7,593.1,571.6,572.2,571.6z"/>
<path fill="#FFD082" stroke="#21243D" stroke-width="7" stroke-miterlimit="10" d="M705,571.6L705,571.6
	c-20.9,0-37.8-16.9-37.8-37.8V166.2c0-20.9,16.9-37.8,37.8-37.8l0,0c20.9,0,37.8,16.9,37.8,37.8v367.6
	C742.9,554.7,725.9,571.6,705,571.6z"/>
<path fill="#FFD082" stroke="#21243D" stroke-width="7" stroke-miterlimit="10" d="M837,571.6L837,571.6
	c-20.9,0-37.8-16.9-37.8-37.8V166.2c0-20.9,16.9-37.8,37.8-37.8l0,0c20.9,0,37.8,16.9,37.8,37.8v367.6
	C874.9,554.7,857.9,571.6,837,571.6z"/>
<path fill="#FFD082" stroke="#21243D" stroke-width="7" stroke-miterlimit="10" d="M976.1,571.6L976.1,571.6
	c-20.9,0-37.8-16.9-37.8-37.8V166.2c0-20.9,16.9-37.8,37.8-37.8l0,0c20.9,0,37.8,16.9,37.8,37.8v367.6
	C1013.9,554.7,997,571.6,976.1,571.6z"/>
<line fill="#FFD082" stroke="#21243D" stroke-width="7" stroke-miterlimit="10" x1="1167.2" y1="201.4" x2="1464.3" y2="498.6"/>
<line fill="#FFD082" stroke="#21243D" stroke-width="7" stroke-miterlimit="10" x1="1167.2" y1="498.6" x2="1464.3" y2="201.4"/>
</svg>
