<?xml version="1.0" encoding="utf-8"?>
<!-- Generator: Adobe Illustrator 24.0.1, SVG Export Plug-In . SVG Version: 6.00 Build 0)  -->
<svg version="1.1" id="Layer_1" xmlns="http://www.w3.org/2000/svg" xmlns:xlink="http://www.w3.org/1999/xlink" x="0px" y="0px"
	 width="101.7px" height="223.5px" viewBox="0 0 101.7 223.5" style="enable-background:new 0 0 101.7 223.5;" xml:space="preserve"
	>
<style type="text/css">
	.st0{fill:#21243D;}
	.st1{fill:#FFFFFF;}
</style>
<path class="st0" d="M87,223.5v-25.9V192v-27.3c-0.2-12.7-6.7-23.9-16.7-30.2c-6.7-4.3-10.9-11.6-10.9-19.5v-0.6
	c0-7.2,4.1-13.8,10.8-16.5c18.5-7.6,31.5-25.8,31.5-47c0-29.3-24.8-52.8-54.6-50.7C22.2,1.9,2,22.1,0.1,46.9
	c-1.7,22.9,11.7,42.9,31.3,51c6.7,2.7,10.9,9.3,10.9,16.5v0.6c0,7.9-4.2,15.2-10.9,19.5C21.5,140.9,15,152,15,164.7V192v5.7v25.9
	L87,223.5L87,223.5z"/>
<path class="st1" d="M60.4,84H41.9c-11.1,0-20.1-9-20.1-20.1l0,0c0-11.1,9-20.1,20.1-20.1h18.4c11.1,0,20.1,9,20.1,20.1l0,0
	C80.5,75,71.5,84,60.4,84z"/>
<circle class="st0" cx="35.8" cy="62.3" r="3.9"/>
<path class="st0" d="M55.1,73.4c0,2.1-1.7,3.7-3.7,3.7c-2.1,0-3.7-1.7-3.7-3.7s1.7-2.1,3.7-2.1S55.1,71.3,55.1,73.4z"/>
<circle class="st0" cx="66.5" cy="62.3" r="3.9"/>
<path class="st0" d="M49.3,59.5L47,63.3c-1,1.6,0.2,3.7,2.1,3.7h4.4c1.9,0,3.1-2.1,2.1-3.7l-2.2-3.9C52.6,57.8,50.2,57.8,49.3,59.5z
	"/>
</svg>
