<?xml version="1.0" encoding="utf-8"?>
<!-- Generator: Adobe Illustrator 24.0.1, SVG Export Plug-In . SVG Version: 6.00 Build 0)  -->
<svg version="1.2" baseProfile="tiny" id="Layer_1" xmlns="http://www.w3.org/2000/svg" xmlns:xlink="http://www.w3.org/1999/xlink"
	 x="0px" y="0px" width="138.3px" height="302.8px" viewBox="0 0 138.3 302.8" xml:space="preserve">
<path fill="#6A2C70" d="M117.9,302.3v-34.9v-7.7v-36.8c-0.3-17.2-9.1-32.2-22.5-40.8c-9-5.8-14.7-15.6-14.7-26.3V155
	c0-9.7,5.6-18.6,14.6-22.3c25-10.3,42.5-34.8,42.5-63.5c0-39.6-33.5-71.3-73.7-68.5C30.5,3.1,3.2,30.3,0.7,63.9
	c-2.3,30.9,15.8,57.9,42.2,68.8c9,3.7,14.7,12.6,14.7,22.3v0.8c0,10.7-5.7,20.5-14.7,26.3c-13.4,8.6-22.2,23.7-22.2,40.8v36.8v7.7
	v34.9H117.9z"/>
</svg>
