<?xml version="1.0" encoding="utf-8"?>
<!-- Generator: Adobe Illustrator 24.0.1, SVG Export Plug-In . SVG Version: 6.00 Build 0)  -->
<svg version="1.2" baseProfile="tiny" id="Layer_1" xmlns="http://www.w3.org/2000/svg" xmlns:xlink="http://www.w3.org/1999/xlink"
	 x="0px" y="0px" width="85.8px" height="60.9px" viewBox="0 0 85.8 60.9" xml:space="preserve">
<path fill="none" stroke="#6A2C70" stroke-width="6.5476" stroke-miterlimit="10" d="M55.5,57.7h-25c-15,0-27.2-12.2-27.2-27.2l0,0
	c0-15,12.2-27.2,27.2-27.2h24.9c15,0,27.2,12.2,27.2,27.2l0,0C82.6,45.6,70.4,57.7,55.5,57.7z"/>
<path fill="#6A2C70" d="M40.4,24.6l-3,5.2c-1.3,2.2,0.3,5,2.9,5h5.9c2.6,0,4.2-2.8,2.9-5l-3-5.2C44.9,22.4,41.7,22.4,40.4,24.6z"/>
</svg>
