<?xml version="1.0" encoding="utf-8"?>
<!-- Generator: Adobe Illustrator 24.0.1, SVG Export Plug-In . SVG Version: 6.00 Build 0)  -->
<svg version="1.1" id="Layer_1" xmlns="http://www.w3.org/2000/svg" xmlns:xlink="http://www.w3.org/1999/xlink" x="0px" y="0px"
	 width="79.3px" height="54.4px" viewBox="0 0 79.3 54.4" style="enable-background:new 0 0 79.3 54.4;" xml:space="preserve">
<style type="text/css">
	.st0{fill:#FFFFFF;}
	.st1{fill:#21243D;}
</style>
<path class="st0" d="M52.2,54.4h-25C12.2,54.4,0,42.2,0,27.2l0,0C0,12.2,12.2,0,27.2,0h24.9c15,0,27.2,12.2,27.2,27.2l0,0
	C79.3,42.3,67.1,54.4,52.2,54.4z"/>
<path class="st1" d="M37.1,21.3l-3,5.2c-1.3,2.2,0.3,5,2.9,5h5.9c2.6,0,4.2-2.8,2.9-5l-3-5.2C41.6,19.1,38.4,19.1,37.1,21.3z"/>
</svg>
