<?xml version="1.0" encoding="utf-8"?>
<!-- Generator: Adobe Illustrator 24.0.1, SVG Export Plug-In . SVG Version: 6.00 Build 0)  -->
<svg version="1.1" id="Layer_1" xmlns="http://www.w3.org/2000/svg" xmlns:xlink="http://www.w3.org/1999/xlink" x="0px" y="0px"
	 width="58.6px" height="40.2px" viewBox="0 0 58.6 40.2" style="enable-background:new 0 0 58.6 40.2;" xml:space="preserve">
<style type="text/css">
	.st0{fill:#FFFFFF;}
	.st1{fill:#21243D;}
	.st2{fill:#F296BF;}
	.st3{fill:#5EC0ED;}
	.st4{fill:#00A0E0;}
	.st5{fill:#3D59A8;}
	.st6{fill:#FFFFFF;stroke:#21243D;stroke-width:3;stroke-miterlimit:10;}
	.st7{fill:#17FFFF;}
</style>
<path class="st0" d="M-41.5,95.8H-60c-11.1,0-20.1-9-20.1-20.1l0,0c0-11.1,9-20.1,20.1-20.1h18.4c11.1,0,20.1,9,20.1,20.1l0,0
	C-21.4,86.8-30.4,95.8-41.5,95.8z"/>
<path class="st1" d="M-52.6,71.3l-2.3,3.8c-1,1.6,0.2,3.7,2.1,3.7h4.4c1.9,0,3.1-2.1,2.1-3.7l-2.2-3.9
	C-49.3,69.6-51.7,69.6-52.6,71.3z"/>
<path class="st0" d="M26.7-62.9H8.2c-11.1,0-20.1-9-20.1-20.1l0,0c0-11.1,9-20.1,20.1-20.1h18.4c11.1,0,20.1,9,20.1,20.1l0,0
	C46.8-71.9,37.8-62.9,26.7-62.9z"/>
<circle class="st1" cx="2.1" cy="-84.6" r="3.9"/>
<path class="st1" d="M21.4-73.5c0,2.1-1.7,3.7-3.7,3.7c-2.1,0-3.7-1.7-3.7-3.7s1.7-2.1,3.7-2.1S21.4-75.6,21.4-73.5z"/>
<circle class="st1" cx="32.8" cy="-84.6" r="3.9"/>
<path class="st1" d="M15.6-87.4l-2.3,3.8c-1,1.6,0.2,3.7,2.1,3.7h4.4c1.9,0,3.1-2.1,2.1-3.7l-2.2-3.9C18.9-89.1,16.5-89.1,15.6-87.4
	z"/>
<path class="st0" d="M-41.5-62.9H-60c-11.1,0-20.1-9-20.1-20.1l0,0c0-11.1,9-20.1,20.1-20.1h18.4c11.1,0,20.1,9,20.1,20.1l0,0
	C-21.4-71.9-30.4-62.9-41.5-62.9z"/>
<circle class="st1" cx="-66.1" cy="-84.6" r="3.9"/>
<path class="st1" d="M-46.8-73.5c0,2.1-1.7,3.7-3.7,3.7c-2.1,0-3.7-1.7-3.7-3.7s1.7-2.1,3.7-2.1S-46.8-75.6-46.8-73.5z"/>
<circle class="st1" cx="-35.4" cy="-84.6" r="3.9"/>
<path class="st1" d="M-52.6-87.4l-2.3,3.8c-1,1.6,0.2,3.7,2.1,3.7h4.4c1.9,0,3.1-2.1,2.1-3.7l-2.2-3.9
	C-49.3-89.1-51.7-89.1-52.6-87.4z"/>
<path class="st0" d="M-41.5-12.6H-60c-11.1,0-20.1-9-20.1-20.1l0,0c0-11.1,9-20.1,20.1-20.1h18.4c11.1,0,20.1,9,20.1,20.1l0,0
	C-21.4-21.6-30.4-12.6-41.5-12.6z"/>
<path class="st1" d="M-52.6-37.1l-2.3,3.8c-1,1.6,0.2,3.7,2.1,3.7h4.4c1.9,0,3.1-2.1,2.1-3.7l-2.2-3.9
	C-49.3-38.8-51.7-38.8-52.6-37.1z"/>
<rect x="-71" y="-35.9" class="st1" width="9.8" height="3.2"/>
<rect x="-40.3" y="-35.9" class="st1" width="9.8" height="3.2"/>
<rect x="-55.7" y="84.4" class="st1" width="9.8" height="3.2"/>
<rect x="-71" y="73.2" class="st1" width="9.8" height="3.2"/>
<rect x="-40.3" y="73.2" class="st1" width="9.8" height="3.2"/>
<circle class="st1" cx="-50.6" cy="-22.4" r="2.6"/>
<path class="st0" d="M38.6,40.2H20.1C9,40.2,0,31.2,0,20.1l0,0C0,9,9,0,20.1,0h18.4c11.1,0,20.1,9,20.1,20.1l0,0
	C58.7,31.2,49.7,40.2,38.6,40.2z"/>
<path class="st1" d="M27.3,15.9L25,19.7c-1,1.6,0.2,3.7,2.1,3.7h4.4c1.9,0,3.1-2.1,2.1-3.7l-2.2-3.9C30.6,14.2,28.2,14.2,27.3,15.9z
	"/>
<rect x="24.4" y="28.8" class="st1" width="9.8" height="3.2"/>
<path class="st1" d="M17.9,18.7l2.1-2.1l-6.9-6.9L10.8,12l2.5,2.5c-0.7,0.1-1.4,0.5-2,1c-1.5,1.5-1.5,4,0,5.5c1.5,1.5,4,1.5,5.5,0
	C17.5,20.4,17.8,19.6,17.9,18.7z"/>
<path class="st1" d="M40.7,18.7l-2.1-2.1l6.9-6.9l2.3,2.3l-2.5,2.5c0.7,0.1,1.4,0.5,2,1c1.5,1.5,1.5,4,0,5.5c-1.5,1.5-4,1.5-5.5,0
	C41.1,20.4,40.8,19.6,40.7,18.7z"/>
<path class="st0" d="M-41.5,40.2H-60c-11.1,0-20.1-9-20.1-20.1l0,0C-80.1,9-71.1,0-60,0h18.4c11.1,0,20.1,9,20.1,20.1l0,0
	C-21.4,31.2-30.4,40.2-41.5,40.2z"/>
<path class="st1" d="M-52.6,15.7l-2.3,3.8c-1,1.6,0.2,3.7,2.1,3.7h4.4c1.9,0,3.1-2.1,2.1-3.7l-2.2-3.9C-49.3,14-51.7,14-52.6,15.7z"
	/>
<rect x="-55.7" y="28.8" class="st1" width="9.8" height="3.2"/>
<g>
	<path class="st1" d="M-69.1,16c-0.6,0.7-0.9,1.5-0.9,2.5c0,2.2,1.7,3.9,3.9,3.9c2.2,0,3.9-1.7,3.9-3.9c0-0.9-0.3-1.8-0.9-2.5H-69.1
		z"/>
</g>
<g>
	<path class="st1" d="M-38.4,16c-0.6,0.7-0.9,1.5-0.9,2.5c0,2.2,1.7,3.9,3.9,3.9c2.2,0,3.9-1.7,3.9-3.9c0-0.9-0.3-1.8-0.9-2.5H-38.4
		z"/>
</g>
<circle class="st2" cx="1.5" cy="-74.3" r="4.4"/>
<circle class="st2" cx="32.8" cy="-74.3" r="4.4"/>
<polygon class="st3" points="-289.2,135.8 -313.2,129.6 -313.2,97.3 -289.2,103.5 "/>
<path class="st1" d="M-312,151.4L-312,151.4c-2.5,0-4.5-2-4.5-4.5v-45.1h9v45.1C-307.5,149.4-309.5,151.4-312,151.4z"/>
<polygon class="st3" points="-289.2,135.8 -265.3,129.6 -265.3,97.3 -289.2,103.5 "/>
<path class="st1" d="M-266.4,151.4L-266.4,151.4c2.5,0,4.5-2,4.5-4.5v-45.1h-9v45.1C-270.9,149.4-268.9,151.4-266.4,151.4z"/>
<path class="st4" d="M-111.7-2.4c-1.4,0-2.6,0.5-3.6,1.2v-3.2h-21.9V7.4c0,5.6,4.6,10.2,10.2,10.2h1.5c5.4,0,9.8-4.2,10.2-9.6
	c1,0.8,2.2,1.3,3.6,1.3c3.2,0,5.8-2.6,5.8-5.8C-105.9,0.2-108.5-2.4-111.7-2.4z"/>
<path class="st1" d="M-106.7,66.9L-106.7,66.9c-2.5,0-4.5-2-4.5-4.5v-59h9v59C-102.2,64.9-104.2,66.9-106.7,66.9z"/>
<path class="st5" d="M-114.9,106.8h-16.7c-2,0-3.6-1.6-3.6-3.6v-25c0-2,1.6-3.6,3.6-3.6h16.7c2,0,3.6,1.6,3.6,3.6v25
	C-111.3,105.2-112.9,106.8-114.9,106.8z"/>
<path class="st1" d="M-137.9,154.2L-137.9,154.2c-2.5,0-4.5-2-4.5-4.5v-59h9v59C-133.4,152.2-135.4,154.2-137.9,154.2z"/>
<circle class="st0" cx="-123.2" cy="92.3" r="3.8"/>
<path class="st0" d="M-123.9,85.9c0.8,0.8,0.7,2.1,0.7,2.1s-1.3,0.1-2.1-0.7c-0.8-0.8-0.7-2.1-0.7-2.1S-124.7,85.1-123.9,85.9z"/>
<path class="st6" d="M-194.2,5.8c0-10-8.1-18.2-18.2-18.2c-10,0-18.2,8.1-18.2,18.2c0,8.1,5.3,15,12.7,17.3l4.9,8.5l4.8-8.2
	C-200.1,21.5-194.2,14.3-194.2,5.8z"/>
<g>
	<path class="st7" d="M-247.8,5.8c0-10-8.1-18.2-18.2-18.2c-10,0-18.2,8.1-18.2,18.2c0,8.1,5.3,15,12.7,17.3l4.9,8.5l4.8-8.2
		C-253.8,21.5-247.8,14.3-247.8,5.8z"/>
	<path class="st1" d="M-266.6,34.6l-5.9-10.3c-7.9-2.8-13.2-10.1-13.2-18.5c0-10.8,8.8-19.7,19.7-19.7c10.8,0,19.7,8.8,19.7,19.7
		c0,8.9-5.9,16.6-14.4,18.9L-266.6,34.6z M-266-10.9c-9.2,0-16.7,7.5-16.7,16.7c0,7.3,4.7,13.7,11.6,15.9l0.6,0.2l3.9,6.8l3.8-6.5
		l0.6-0.1c7.5-1.8,12.7-8.5,12.7-16.2C-249.3-3.4-256.8-10.9-266-10.9z"/>
</g>
<path class="st1" d="M-267.7-2.5v3.3V2v7c-0.7-0.4-1.5-0.6-2.4-0.6c-2.4,0-4.4,1.7-4.4,3.7c0,2,2,3.7,4.4,3.7s4.4-1.7,4.4-3.7V2h8.2
	v-4.5H-267.7z"/>
<g>
	<path class="st1" d="M-208,5.4l-2.2,3c-0.3,0.5-0.5,1-0.5,1.5v0.8h-2.9v-1c0-0.6,0.1-1,0.2-1.5c0.1-0.4,0.4-0.9,0.7-1.3l2.2-2.9
		c0.3-0.4,0.5-0.7,0.7-1.1c0.2-0.3,0.2-0.7,0.2-1.1c0-0.8-0.3-1.5-0.8-2s-1.2-0.8-2-0.8c-0.8,0-1.5,0.3-2,0.8
		c-0.5,0.5-0.7,1.2-0.7,2h-2.9c0-1.6,0.5-2.9,1.6-3.9c1.1-1,2.4-1.5,4-1.5c1.6,0,2.9,0.5,4,1.5c1.1,1,1.6,2.3,1.6,3.9
		c0,0.6-0.1,1.2-0.4,1.7S-207.6,4.9-208,5.4z M-212.1,16.8c-0.5,0-0.9-0.2-1.3-0.5c-0.4-0.4-0.5-0.8-0.5-1.3s0.2-0.9,0.5-1.3
		c0.3-0.4,0.8-0.5,1.3-0.5c0.5,0,0.9,0.2,1.3,0.5c0.4,0.4,0.5,0.8,0.5,1.3s-0.2,0.9-0.5,1.3C-211.2,16.6-211.6,16.8-212.1,16.8z"/>
</g>
<path class="st6" d="M-194.2-57.3c0-10-8.1-18.2-18.2-18.2c-10,0-18.2,8.1-18.2,18.2c0,8.1,5.3,15,12.7,17.3l4.9,8.5l4.8-8.2
	C-200.1-41.6-194.2-48.8-194.2-57.3z"/>
<rect x="-218.9" y="-50.5" class="st1" width="11.9" height="2.5"/>
<rect x="-220.4" y="-58" transform="matrix(0.7071 0.7071 -0.7071 0.7071 -104.0391 136.8016)" class="st1" width="6.5" height="1.7"/>
<rect x="-211.9" y="-58" transform="matrix(-0.7071 0.7071 -0.7071 -0.7071 -396.6891 49.943)" class="st1" width="6.5" height="1.7"/>
</svg>
