<?xml version="1.0" encoding="utf-8"?>
<!-- Generator: Adobe Illustrator 24.0.1, SVG Export Plug-In . SVG Version: 6.00 Build 0)  -->
<svg version="1.1" id="Layer_1" xmlns="http://www.w3.org/2000/svg" xmlns:xlink="http://www.w3.org/1999/xlink" x="0px" y="0px"
	 width="768px" height="856px" viewBox="0 0 768 856" style="enable-background:new 0 0 768 856;" xml:space="preserve">
<style type="text/css">
	.st0{fill:#FF7C7C;}
</style>
<g>
	<path class="st0" d="M708.5,856c0,5.2,4.3,9.5,9.5,9.5s9.5-4.3,9.5-9.5V246.3c0.1-58.2-22.6-113-63.8-154.2s-96-63.9-154.2-63.9
		H264.8c-58.3,0-113,22.7-154.2,63.9s-63.9,96-63.9,154.2v351c0,43.6,21.3,84.6,57.1,109.6l264.7,185.2l-8.5,5.6
		c-4.4,2.9-5.6,8.8-2.7,13.2s8.8,5.6,13.2,2.7l14.8-9.8l5.1,3.5c4.3,3,10.2,2,13.2-2.3c2.8-3.9,2.1-9.2-1.3-12.4l245.1-161.5V856
		c0,5.2,4.3,9.5,9.5,9.5s9.5-4.3,9.5-9.5V713.4c0-3.5-1.9-6.7-5-8.4s-6.8-1.5-9.7,0.4l-266,175.4l-271-189.4
		c-30.7-21.5-49-56.6-49-94V445.8c1-3.5,4.8-15.1,12.4-26.5c11.3-16.8,25.5-25.3,42.3-25.3c5.2,0,9.5-4.3,9.5-9.5s-4.3-9.5-9.5-9.5
		c-36.4,0-54.7-30.6-54.7-47.8v-80.9c0-109.8,89.3-199.1,199.1-199.1h244.6c109.8,0,199.1,89.3,199.1,199.1V856z"/>
</g>
</svg>
