<?xml version="1.0" encoding="utf-8"?>
<!-- Generator: Adobe Illustrator 24.0.1, SVG Export Plug-In . SVG Version: 6.00 Build 0)  -->
<svg version="1.2" baseProfile="tiny" id="Layer_1" xmlns="http://www.w3.org/2000/svg" xmlns:xlink="http://www.w3.org/1999/xlink"
	 x="0px" y="0px" width="558.4px" height="244.4px" viewBox="0 0 558.4 244.4" xml:space="preserve">
<path fill="#FF7278" d="M9.5,0C4.3,0,0,4.3,0,9.5v119.9c0,26.7,13.1,51.7,34.9,67l66.3,46.3c1.7,1.2,3.6,1.7,5.4,1.7
	c3,0,6-1.4,7.8-4.1c3-4.3,2-10.2-2.4-13.2l-66.3-46.3C29,169.1,19,149.9,19,129.4V9.5C19,4.3,14.7,0,9.5,0z"/>
<path fill="#FF7278" d="M548.9,0c-5.2,0-9.5,4.3-9.5,9.5v119.9c0,20.5-10,39.7-26.8,51.4l-66.3,46.3c-4.3,3-5.4,8.9-2.4,13.2
	c1.8,2.6,4.8,4.1,7.8,4.1c1.9,0,3.8-0.6,5.4-1.7l66.3-46.3c21.9-15.3,34.9-40.3,34.9-67V9.5C558.4,4.3,554.1,0,548.9,0z"/>
</svg>
