<?xml version="1.0" encoding="utf-8"?>
<!-- Generator: Adobe Illustrator 24.0.1, SVG Export Plug-In . SVG Version: 6.00 Build 0)  -->
<svg version="1.2" baseProfile="tiny" id="Layer_1" xmlns="http://www.w3.org/2000/svg" xmlns:xlink="http://www.w3.org/1999/xlink"
	 x="0px" y="0px" width="138.3px" height="302.8px" viewBox="0 0 138.3 302.8" xml:space="preserve">
<path fill="#21243D" d="M117.9,302.3v-34.9v-7.7v-36.8c-0.3-17.2-9.1-32.2-22.5-40.8c-9-5.8-14.7-15.6-14.7-26.3V155
	c0-9.7,5.6-18.6,14.6-22.3c25-10.3,42.5-34.8,42.5-63.5c0-39.6-33.5-71.3-73.7-68.5C30.5,3.1,3.2,30.3,0.7,63.9
	c-2.3,30.9,15.8,57.9,42.2,68.8c9,3.7,14.7,12.6,14.7,22.3v0.8c0,10.7-5.7,20.5-14.7,26.3c-13.4,8.6-22.2,23.7-22.2,40.8v36.8v7.7
	v34.9L117.9,302.3L117.9,302.3z"/>
<path fill="#FFFFFF" d="M82.1,113.9h-25c-15,0-27.2-12.2-27.2-27.2l0,0c0-15,12.2-27.2,27.2-27.2H82c15,0,27.2,12.2,27.2,27.2l0,0
	C109.2,101.8,97,113.9,82.1,113.9z"/>
<circle fill="#21243D" cx="48.9" cy="84.6" r="5.2"/>
<path fill="#21243D" d="M74.9,99.6c0,2.8-2.3,5-5,5c-2.8,0-5-2.3-5-5s2.3-2.8,5-2.8S74.9,96.8,74.9,99.6z"/>
<circle fill="#21243D" cx="90.3" cy="84.6" r="5.2"/>
<path fill="#21243D" d="M67,80.8L64,86c-1.3,2.2,0.3,5,2.9,5h5.9c2.6,0,4.2-2.8,2.9-5l-3-5.2C71.5,78.6,68.3,78.6,67,80.8z"/>
</svg>
