<?xml version="1.0" encoding="utf-8"?>
<!-- Generator: Adobe Illustrator 24.0.1, SVG Export Plug-In . SVG Version: 6.00 Build 0)  -->
<svg version="1.1" id="Layer_1" xmlns="http://www.w3.org/2000/svg" xmlns:xlink="http://www.w3.org/1999/xlink" x="0px" y="0px"
	 width="31.4px" height="61.5px" viewBox="0 0 31.4 61.5" style="enable-background:new 0 0 31.4 61.5;" xml:space="preserve">
<style type="text/css">
	.st0{fill:#88E1F2;}
	.st1{fill:#FF7C7C;}
	.st2{fill:#76B4F2;}
</style>
<path class="st0" d="M20.8,58.4c-2.1,4.1-8,4.1-10,0c-4.2-8.4-9.6-27.9-9.6-32.7c0-8,6.5-14.5,14.5-14.5s14.5,6.5,14.5,14.5
	C30.4,30.6,25,50.1,20.8,58.4z"/>
<polygon class="st1" points="15.7,0 9.5,10.6 21.9,10.6 "/>
<circle class="st2" cx="15.7" cy="18.3" r="10.5"/>
<ellipse transform="matrix(0.9656 -0.2602 0.2602 0.9656 -9.6216 2.7167)" class="st2" cx="5.5" cy="37.7" rx="4.1" ry="14.5"/>
<ellipse transform="matrix(0.2602 -0.9656 0.9656 0.2602 -17.1815 52.9181)" class="st2" cx="25.9" cy="37.7" rx="14.5" ry="4.1"/>
</svg>
