<?xml version="1.0" encoding="utf-8"?>
<!-- Generator: Adobe Illustrator 24.0.1, SVG Export Plug-In . SVG Version: 6.00 Build 0)  -->
<svg version="1.1" id="Layer_1" xmlns="http://www.w3.org/2000/svg" xmlns:xlink="http://www.w3.org/1999/xlink" x="0px" y="0px"
	 width="86px" height="91.2px" viewBox="0 0 86 91.2" style="enable-background:new 0 0 86 91.2;" xml:space="preserve">
<style type="text/css">
	.st0{fill:#FF7C7C;}
	.st1{fill:#17FFFF;}
	.st2{fill:#76B4F2;}
	.st3{fill:#21243D;}
</style>
<polygon class="st0" points="0,19.9 15.9,29.1 15.9,10.7 "/>
<path class="st1" d="M40.6,34.8c5.6-3.2,9.5-9.2,9.5-16.2C50.1,8.3,41.8,0,31.5,0C21.1-0.1,12.8,8.3,12.8,18.5
	c0,9.9,7.8,18,17.5,18.6l-15,15c-6.9,6.9-6.9,18.1,0,25.1l0,0c18.7,18.7,49,18.7,67.7,0l0,0L40.6,34.8z"/>
<circle class="st2" cx="31.4" cy="18.6" r="18.6"/>
<path class="st2" d="M38.2,41.8l-3.9,13.7c-2.3,8.1,3.5,16.3,11.9,16.8L86,74.7L46.9,39.3C44,36.6,39.3,37.9,38.2,41.8z"/>
<circle class="st3" cx="32.7" cy="20.9" r="4.8"/>
</svg>
