<?xml version="1.0" encoding="utf-8"?>
<!-- Generator: Adobe Illustrator 24.0.1, SVG Export Plug-In . SVG Version: 6.00 Build 0)  -->
<svg version="1.1" id="Layer_1" xmlns="http://www.w3.org/2000/svg" xmlns:xlink="http://www.w3.org/1999/xlink" x="0px" y="0px"
	 width="48.9px" height="51.9px" viewBox="0 0 48.9 51.9" style="enable-background:new 0 0 48.9 51.9;" xml:space="preserve">
<style type="text/css">
	.st0{fill:#FF7C7C;}
	.st1{fill:#17FFFF;}
	.st2{fill:#76B4F2;}
	.st3{fill:#21243D;}
</style>
<polygon class="st0" points="0,11.3 9,16.6 9,6.1 "/>
<path class="st1" d="M23.1,19.8c3.2-1.8,5.4-5.2,5.4-9.2C28.5,4.7,23.8,0,17.9,0C12-0.1,7.3,4.7,7.3,10.5c0,5.6,4.4,10.2,10,10.6
	l-8.5,8.5c-3.9,3.9-3.9,10.3,0,14.3l0,0c10.6,10.6,27.9,10.6,38.5,0l0,0L23.1,19.8z"/>
<circle class="st2" cx="17.9" cy="10.6" r="10.6"/>
<path class="st2" d="M21.7,23.8l-2.2,7.8c-1.3,4.6,2,9.3,6.8,9.6l22.6,1.4L26.7,22.4C25,20.8,22.4,21.6,21.7,23.8z"/>
<circle class="st3" cx="18.6" cy="11.9" r="2.7"/>
</svg>
