<?xml version="1.0" encoding="utf-8"?>
<!-- Generator: Adobe Illustrator 24.0.1, SVG Export Plug-In . SVG Version: 6.00 Build 0)  -->
<svg version="1.2" baseProfile="tiny" id="Layer_1" xmlns="http://www.w3.org/2000/svg" xmlns:xlink="http://www.w3.org/1999/xlink"
	 x="0px" y="0px" width="79.6px" height="61.5px" viewBox="0 0 79.6 61.5" xml:space="preserve">
<path fill="#88E1F2" d="M44.9,58.4c-2.1,4.1-8,4.1-10,0c-4.2-8.4-9.6-27.9-9.6-32.7c0-8,6.5-14.5,14.5-14.5s14.5,6.5,14.5,14.5
	C54.5,30.6,49.1,50.1,44.9,58.4z"/>
<polygon fill="#FF7C7C" points="39.8,0 33.6,10.6 46,10.6 "/>
<circle fill="#76B4F2" cx="39.8" cy="18.3" r="10.5"/>
<ellipse transform="matrix(0.9656 -0.2602 0.2602 0.9656 -8.787 8.997)" fill="#76B4F2" cx="29.6" cy="37.7" rx="4.1" ry="14.5"/>
<ellipse transform="matrix(0.2602 -0.9656 0.9656 0.2602 0.6095 76.2327)" fill="#76B4F2" cx="50.1" cy="37.7" rx="14.5" ry="4.1"/>
</svg>
